<?xml version="1.0" encoding="UTF-8" standalone="no"?>
<!DOCTYPE svg PUBLIC "-//W3C//DTD SVG 1.1//EN"
 "http://www.w3.org/Graphics/SVG/1.1/DTD/svg11.dtd">
<!-- Generated by graphviz version 2.43.0 (0)
 -->
<!-- Title: G Pages: 1 -->
<svg width="832pt" height="612pt"
 viewBox="0.00 0.00 832.00 612.00" xmlns="http://www.w3.org/2000/svg" xmlns:xlink="http://www.w3.org/1999/xlink">
<g id="graph0" class="graph" transform="scale(1 1) rotate(0) translate(4 608)">
<title>G</title>
<polygon fill="white" stroke="transparent" points="-4,4 -4,-608 828,-608 828,4 -4,4"/>
<g id="clust1" class="cluster">
<title>cluster_root</title>
<g id="a_clust1"><a xlink:title="eventq_index=0&#10;full_system=false&#10;sim_quantum=0&#10;time_sync_enable=false&#10;time_sync_period=100000000000&#10;time_sync_spin_threshold=100000000">
<path fill="#bab6ae" stroke="#000000" d="M20,-8C20,-8 804,-8 804,-8 810,-8 816,-14 816,-20 816,-20 816,-584 816,-584 816,-590 810,-596 804,-596 804,-596 20,-596 20,-596 14,-596 8,-590 8,-584 8,-584 8,-20 8,-20 8,-14 14,-8 20,-8"/>
<text text-anchor="middle" x="412" y="-580.8" font-family="Arial" font-size="14.00" fill="#000000">root </text>
<text text-anchor="middle" x="412" y="-565.8" font-family="Arial" font-size="14.00" fill="#000000">: Root</text>
</a>
</g>
</g>
<g id="clust2" class="cluster">
<title>cluster_system</title>
<g id="a_clust2"><a xlink:title="auto_unlink_shared_backstore=false&#10;cache_line_size=64&#10;eventq_index=0&#10;exit_on_work_items=false&#10;init_param=0&#10;m5ops_base=0&#10;mem_mode=timing&#10;mem_ranges=2147483648:3221225472 3221225472:4294967296&#10;memories=system.mem_ctrl1.dram system.mem_ctrl2.dram&#10;mmap_using_noreserve=false&#10;multi_thread=false&#10;&#10;um_work_ids=16&#10;&#13;eadfile=&#10;&#13;edirect_paths=&#10;shadow_rom_ranges=&#10;shared_backstore=&#10;symbolfile=&#10;thermal_components=&#10;thermal_model=Null&#10;work_begin_ckpt_count=0&#10;work_begin_cpu_id_exit=&#45;1&#10;work_begin_exit_count=0&#10;work_cpus_ckpt_count=0&#10;work_end_ckpt_count=0&#10;work_end_exit_count=0&#10;work_item_id=&#45;1&#10;workload=system.workload">
<path fill="#e4e7eb" stroke="#000000" d="M28,-16C28,-16 796,-16 796,-16 802,-16 808,-22 808,-28 808,-28 808,-538 808,-538 808,-544 802,-550 796,-550 796,-550 28,-550 28,-550 22,-550 16,-544 16,-538 16,-538 16,-28 16,-28 16,-22 22,-16 28,-16"/>
<text text-anchor="middle" x="412" y="-534.8" font-family="Arial" font-size="14.00" fill="#000000">system </text>
<text text-anchor="middle" x="412" y="-519.8" font-family="Arial" font-size="14.00" fill="#000000">: System</text>
</a>
</g>
</g>
<g id="clust6" class="cluster">
<title>cluster_system_membus</title>
<g id="a_clust6"><a xlink:title="clk_domain=system.clk_domain&#10;eventq_index=0&#10;forward_latency=4&#10;frontend_latency=3&#10;header_latency=1&#10;max_outstanding_snoops=512&#10;max_routing_table_size=512&#10;point_of_coherency=true&#10;point_of_unification=true&#10;power_model=&#10;power_state=system.membus.power_state&#10;&#13;esponse_latency=2&#10;snoop_filter=system.membus.snoop_filter&#10;snoop_response_latency=4&#10;system=system&#10;use_default_range=false&#10;width=16">
<path fill="#6f798c" stroke="#000000" d="M148,-284C148,-284 384,-284 384,-284 390,-284 396,-290 396,-296 396,-296 396,-362 396,-362 396,-368 390,-374 384,-374 384,-374 148,-374 148,-374 142,-374 136,-368 136,-362 136,-362 136,-296 136,-296 136,-290 142,-284 148,-284"/>
<text text-anchor="middle" x="266" y="-358.8" font-family="Arial" font-size="14.00" fill="#000000">membus </text>
<text text-anchor="middle" x="266" y="-343.8" font-family="Arial" font-size="14.00" fill="#000000">: SystemXBar</text>
</a>
</g>
</g>
<g id="clust9" class="cluster">
<title>cluster_system_cpu</title>
<g id="a_clust9"><a xlink:title="branchPred=Null&#10;checker=Null&#10;clk_domain=system.clk_domain&#10;cpu_id=&#45;1&#10;decoder=system.cpu.decoder&#10;do_checkpoint_insts=true&#10;do_statistics_insts=true&#10;eventq_index=0&#10;function_trace=false&#10;function_trace_start=0&#10;interrupts=system.cpu.interrupts&#10;isa=system.cpu.isa&#10;max_insts_all_threads=0&#10;max_insts_any_thread=0&#10;mmu=system.cpu.mmu&#10;&#10;umThreads=1&#10;power_gating_on_idle=false&#10;power_model=&#10;power_state=system.cpu.power_state&#10;progress_interval=0&#10;pwr_gating_latency=300&#10;simpoint_start_insts=&#10;socket_id=0&#10;switched_out=false&#10;syscallRetryLatency=10000&#10;system=system&#10;tracer=system.cpu.tracer&#10;workload=system.cpu.workload">
<path fill="#bbc6d9" stroke="#000000" d="M416,-146C416,-146 788,-146 788,-146 794,-146 800,-152 800,-158 800,-158 800,-362 800,-362 800,-368 794,-374 788,-374 788,-374 416,-374 416,-374 410,-374 404,-368 404,-362 404,-362 404,-158 404,-158 404,-152 410,-146 416,-146"/>
<text text-anchor="middle" x="602" y="-358.8" font-family="Arial" font-size="14.00" fill="#000000">cpu </text>
<text text-anchor="middle" x="602" y="-343.8" font-family="Arial" font-size="14.00" fill="#000000">: ArmTimingSimpleCPU</text>
</a>
</g>
</g>
<g id="clust27" class="cluster">
<title>cluster_system_cpu_icache</title>
<g id="a_clust27"><a xlink:title="addr_ranges=0:18446744073709551615&#10;assoc=8&#10;clk_domain=system.clk_domain&#10;clusivity=mostly_incl&#10;compressor=Null&#10;data_latency=10&#10;demand_mshr_reserve=1&#10;eventq_index=0&#10;is_read_only=false&#10;max_miss_count=0&#10;move_contractions=true&#10;mshrs=64&#10;partitioning_manager=Null&#10;power_model=&#10;power_state=system.cpu.icache.power_state&#10;prefetcher=Null&#10;&#13;eplace_expansions=true&#10;&#13;eplacement_policy=system.cpu.icache.replacement_policy&#10;&#13;esponse_latency=10&#10;sequential_access=false&#10;size=65536&#10;system=system&#10;tag_latency=10&#10;tags=system.cpu.icache.tags&#10;tgts_per_mshr=20&#10;warmup_percentage=0&#10;write_allocator=Null&#10;write_buffers=8&#10;writeback_clean=false">
<path fill="#bab6ae" stroke="#000000" d="M618,-154C618,-154 780,-154 780,-154 786,-154 792,-160 792,-166 792,-166 792,-232 792,-232 792,-238 786,-244 780,-244 780,-244 618,-244 618,-244 612,-244 606,-238 606,-232 606,-232 606,-166 606,-166 606,-160 612,-154 618,-154"/>
<text text-anchor="middle" x="699" y="-228.8" font-family="Arial" font-size="14.00" fill="#000000">icache </text>
<text text-anchor="middle" x="699" y="-213.8" font-family="Arial" font-size="14.00" fill="#000000">: Cache</text>
</a>
</g>
</g>
<g id="clust33" class="cluster">
<title>cluster_system_cpu_dcache</title>
<g id="a_clust33"><a xlink:title="addr_ranges=0:18446744073709551615&#10;assoc=8&#10;clk_domain=system.clk_domain&#10;clusivity=mostly_incl&#10;compressor=Null&#10;data_latency=10&#10;demand_mshr_reserve=1&#10;eventq_index=0&#10;is_read_only=false&#10;max_miss_count=0&#10;move_contractions=true&#10;mshrs=64&#10;partitioning_manager=Null&#10;power_model=&#10;power_state=system.cpu.dcache.power_state&#10;prefetcher=Null&#10;&#13;eplace_expansions=true&#10;&#13;eplacement_policy=system.cpu.dcache.replacement_policy&#10;&#13;esponse_latency=10&#10;sequential_access=false&#10;size=65536&#10;system=system&#10;tag_latency=10&#10;tags=system.cpu.dcache.tags&#10;tgts_per_mshr=20&#10;warmup_percentage=0&#10;write_allocator=Null&#10;write_buffers=8&#10;writeback_clean=false">
<path fill="#bab6ae" stroke="#000000" d="M424,-154C424,-154 586,-154 586,-154 592,-154 598,-160 598,-166 598,-166 598,-232 598,-232 598,-238 592,-244 586,-244 586,-244 424,-244 424,-244 418,-244 412,-238 412,-232 412,-232 412,-166 412,-166 412,-160 418,-154 424,-154"/>
<text text-anchor="middle" x="505" y="-228.8" font-family="Arial" font-size="14.00" fill="#000000">dcache </text>
<text text-anchor="middle" x="505" y="-213.8" font-family="Arial" font-size="14.00" fill="#000000">: Cache</text>
</a>
</g>
</g>
<g id="clust44" class="cluster">
<title>cluster_system_trafficgen</title>
<g id="a_clust44"><a xlink:title="clk_domain=system.clk_domain&#10;config_file=traffic_gen4.cfg&#10;cpu_id=&#45;1&#10;elastic_req=false&#10;eventq_index=0&#10;max_outstanding_reqs=0&#10;&#10;umThreads=1&#10;power_model=&#10;power_state=system.trafficgen.power_state&#10;progress_check=1000000000&#10;sids=&#10;socket_id=0&#10;ssids=&#10;stream_gen=none&#10;system=system">
<path fill="#bab6ae" stroke="#000000" d="M302,-414C302,-414 366,-414 366,-414 372,-414 378,-420 378,-426 378,-426 378,-492 378,-492 378,-498 372,-504 366,-504 366,-504 302,-504 302,-504 296,-504 290,-498 290,-492 290,-492 290,-426 290,-426 290,-420 296,-414 302,-414"/>
<text text-anchor="middle" x="334" y="-488.8" font-family="Arial" font-size="14.00" fill="#000000">trafficgen </text>
<text text-anchor="middle" x="334" y="-473.8" font-family="Arial" font-size="14.00" fill="#000000">: TrafficGen</text>
</a>
</g>
</g>
<g id="clust46" class="cluster">
<title>cluster_system_l2cache</title>
<g id="a_clust46"><a xlink:title="addr_ranges=0:18446744073709551615&#10;assoc=8&#10;clk_domain=system.clk_domain&#10;clusivity=mostly_incl&#10;compressor=Null&#10;data_latency=10&#10;demand_mshr_reserve=1&#10;eventq_index=0&#10;is_read_only=false&#10;max_miss_count=0&#10;move_contractions=true&#10;mshrs=64&#10;partitioning_manager=Null&#10;power_model=&#10;power_state=system.l2cache.power_state&#10;prefetcher=Null&#10;&#13;eplace_expansions=true&#10;&#13;eplacement_policy=system.l2cache.replacement_policy&#10;&#13;esponse_latency=10&#10;sequential_access=false&#10;size=131072&#10;system=system&#10;tag_latency=10&#10;tags=system.l2cache.tags&#10;tgts_per_mshr=20&#10;warmup_percentage=0&#10;write_allocator=Null&#10;write_buffers=8&#10;writeback_clean=false">
<path fill="#bab6ae" stroke="#000000" d="M222,-154C222,-154 384,-154 384,-154 390,-154 396,-160 396,-166 396,-166 396,-232 396,-232 396,-238 390,-244 384,-244 384,-244 222,-244 222,-244 216,-244 210,-238 210,-232 210,-232 210,-166 210,-166 210,-160 216,-154 222,-154"/>
<text text-anchor="middle" x="303" y="-228.8" font-family="Arial" font-size="14.00" fill="#000000">l2cache </text>
<text text-anchor="middle" x="303" y="-213.8" font-family="Arial" font-size="14.00" fill="#000000">: Cache</text>
</a>
</g>
</g>
<g id="clust52" class="cluster">
<title>cluster_system_l2bus</title>
<g id="a_clust52"><a xlink:title="clk_domain=system.clk_domain&#10;eventq_index=0&#10;forward_latency=4&#10;frontend_latency=3&#10;header_latency=1&#10;max_outstanding_snoops=512&#10;max_routing_table_size=512&#10;point_of_coherency=true&#10;point_of_unification=true&#10;power_model=&#10;power_state=system.l2bus.power_state&#10;&#13;esponse_latency=2&#10;snoop_filter=system.l2bus.snoop_filter&#10;snoop_response_latency=4&#10;system=system&#10;use_default_range=false&#10;width=16">
<path fill="#6f798c" stroke="#000000" d="M72,-24C72,-24 308,-24 308,-24 314,-24 320,-30 320,-36 320,-36 320,-102 320,-102 320,-108 314,-114 308,-114 308,-114 72,-114 72,-114 66,-114 60,-108 60,-102 60,-102 60,-36 60,-36 60,-30 66,-24 72,-24"/>
<text text-anchor="middle" x="190" y="-98.8" font-family="Arial" font-size="14.00" fill="#000000">l2bus </text>
<text text-anchor="middle" x="190" y="-83.8" font-family="Arial" font-size="14.00" fill="#000000">: SystemXBar</text>
</a>
</g>
</g>
<g id="clust55" class="cluster">
<title>cluster_system_mem_ctrl1</title>
<g id="a_clust55"><a xlink:title="clk_domain=system.clk_domain&#10;command_window=10000&#10;disable_sanity_check=false&#10;dram=system.mem_ctrl1.dram&#10;eventq_index=0&#10;mem_sched_policy=frfcfs&#10;min_reads_per_switch=16&#10;min_writes_per_switch=16&#10;power_model=&#10;power_state=system.mem_ctrl1.power_state&#10;qos_policy=Null&#10;qos_priorities=1&#10;qos_priority_escalation=false&#10;qos_q_policy=fifo&#10;qos_requestors= &#160;&#160;&#160;&#160;&#160;&#160;&#160;&#160;&#160;&#160;&#160;&#160;&#160;&#160;&#10;qos_syncro_scheduler=false&#10;qos_turnaround_policy=Null&#10;static_backend_latency=10000&#10;static_frontend_latency=10000&#10;system=system&#10;write_high_thresh_perc=85&#10;write_low_thresh_perc=50">
<path fill="#bab6ae" stroke="#000000" d="M129,-154C129,-154 190,-154 190,-154 196,-154 202,-160 202,-166 202,-166 202,-232 202,-232 202,-238 196,-244 190,-244 190,-244 129,-244 129,-244 123,-244 117,-238 117,-232 117,-232 117,-166 117,-166 117,-160 123,-154 129,-154"/>
<text text-anchor="middle" x="159.5" y="-228.8" font-family="Arial" font-size="14.00" fill="#000000">mem_ctrl1 </text>
<text text-anchor="middle" x="159.5" y="-213.8" font-family="Arial" font-size="14.00" fill="#000000">: MemCtrl</text>
</a>
</g>
</g>
<g id="clust59" class="cluster">
<title>cluster_system_mem_ctrl2</title>
<g id="a_clust59"><a xlink:title="clk_domain=system.clk_domain&#10;command_window=10000&#10;disable_sanity_check=false&#10;dram=system.mem_ctrl2.dram&#10;eventq_index=0&#10;mem_sched_policy=frfcfs&#10;min_reads_per_switch=16&#10;min_writes_per_switch=16&#10;power_model=&#10;power_state=system.mem_ctrl2.power_state&#10;qos_policy=Null&#10;qos_priorities=1&#10;qos_priority_escalation=false&#10;qos_q_policy=fifo&#10;qos_requestors= &#160;&#160;&#160;&#160;&#160;&#160;&#160;&#160;&#160;&#160;&#160;&#160;&#160;&#160;&#10;qos_syncro_scheduler=false&#10;qos_turnaround_policy=Null&#10;static_backend_latency=10000&#10;static_frontend_latency=10000&#10;system=system&#10;write_high_thresh_perc=85&#10;write_low_thresh_perc=50">
<path fill="#bab6ae" stroke="#000000" d="M36,-154C36,-154 97,-154 97,-154 103,-154 109,-160 109,-166 109,-166 109,-232 109,-232 109,-238 103,-244 97,-244 97,-244 36,-244 36,-244 30,-244 24,-238 24,-232 24,-232 24,-166 24,-166 24,-160 30,-154 36,-154"/>
<text text-anchor="middle" x="66.5" y="-228.8" font-family="Arial" font-size="14.00" fill="#000000">mem_ctrl2 </text>
<text text-anchor="middle" x="66.5" y="-213.8" font-family="Arial" font-size="14.00" fill="#000000">: MemCtrl</text>
</a>
</g>
</g>
<!-- system_membus_cpu_side_ports -->
<g id="node1" class="node">
<title>system_membus_cpu_side_ports</title>
<path fill="#586070" stroke="#000000" d="M376,-328C376,-328 292,-328 292,-328 286,-328 280,-322 280,-316 280,-316 280,-304 280,-304 280,-298 286,-292 292,-292 292,-292 376,-292 376,-292 382,-292 388,-298 388,-304 388,-304 388,-316 388,-316 388,-322 382,-328 376,-328"/>
<text text-anchor="middle" x="334" y="-306.3" font-family="Arial" font-size="14.00" fill="#000000">cpu_side_ports</text>
</g>
<!-- system_cpu_icache_mem_side -->
<g id="node6" class="node">
<title>system_cpu_icache_mem_side</title>
<path fill="#94918b" stroke="#000000" d="M682,-198C682,-198 626,-198 626,-198 620,-198 614,-192 614,-186 614,-186 614,-174 614,-174 614,-168 620,-162 626,-162 626,-162 682,-162 682,-162 688,-162 694,-168 694,-174 694,-174 694,-186 694,-186 694,-192 688,-198 682,-198"/>
<text text-anchor="middle" x="654" y="-176.3" font-family="Arial" font-size="14.00" fill="#000000">mem_side</text>
</g>
<!-- system_membus_cpu_side_ports&#45;&gt;system_cpu_icache_mem_side -->
<g id="edge1" class="edge">
<title>system_membus_cpu_side_ports&#45;&gt;system_cpu_icache_mem_side</title>
<path fill="none" stroke="black" d="M385.69,-288.49C390.49,-286.87 395.31,-285.34 400,-284 487.99,-258.81 523.41,-290.91 602,-244 620.51,-232.95 635.37,-212.81 644.39,-198.27"/>
<polygon fill="black" stroke="black" points="384.17,-285.32 375.9,-291.94 386.49,-291.92 384.17,-285.32"/>
</g>
<!-- system_cpu_dcache_mem_side -->
<g id="node8" class="node">
<title>system_cpu_dcache_mem_side</title>
<path fill="#94918b" stroke="#000000" d="M488,-198C488,-198 432,-198 432,-198 426,-198 420,-192 420,-186 420,-186 420,-174 420,-174 420,-168 426,-162 432,-162 432,-162 488,-162 488,-162 494,-162 500,-168 500,-174 500,-174 500,-186 500,-186 500,-192 494,-198 488,-198"/>
<text text-anchor="middle" x="460" y="-176.3" font-family="Arial" font-size="14.00" fill="#000000">mem_side</text>
</g>
<!-- system_membus_cpu_side_ports&#45;&gt;system_cpu_dcache_mem_side -->
<g id="edge2" class="edge">
<title>system_membus_cpu_side_ports&#45;&gt;system_cpu_dcache_mem_side</title>
<path fill="none" stroke="black" d="M359.13,-284.62C371.52,-272.5 386.65,-257.58 400,-244 415.04,-228.71 431.85,-211 443.85,-198.26"/>
<polygon fill="black" stroke="black" points="356.51,-282.28 351.8,-291.77 361.4,-287.29 356.51,-282.28"/>
</g>
<!-- system_membus_mem_side_ports -->
<g id="node2" class="node">
<title>system_membus_mem_side_ports</title>
<path fill="#586070" stroke="#000000" d="M250,-328C250,-328 156,-328 156,-328 150,-328 144,-322 144,-316 144,-316 144,-304 144,-304 144,-298 150,-292 156,-292 156,-292 250,-292 250,-292 256,-292 262,-298 262,-304 262,-304 262,-316 262,-316 262,-322 256,-328 250,-328"/>
<text text-anchor="middle" x="203" y="-306.3" font-family="Arial" font-size="14.00" fill="#000000">mem_side_ports</text>
</g>
<!-- system_l2cache_cpu_side -->
<g id="node10" class="node">
<title>system_l2cache_cpu_side</title>
<path fill="#94918b" stroke="#000000" d="M375.5,-198C375.5,-198 328.5,-198 328.5,-198 322.5,-198 316.5,-192 316.5,-186 316.5,-186 316.5,-174 316.5,-174 316.5,-168 322.5,-162 328.5,-162 328.5,-162 375.5,-162 375.5,-162 381.5,-162 387.5,-168 387.5,-174 387.5,-174 387.5,-186 387.5,-186 387.5,-192 381.5,-198 375.5,-198"/>
<text text-anchor="middle" x="352" y="-176.3" font-family="Arial" font-size="14.00" fill="#000000">cpu_side</text>
</g>
<!-- system_membus_mem_side_ports&#45;&gt;system_l2cache_cpu_side -->
<g id="edge3" class="edge">
<title>system_membus_mem_side_ports&#45;&gt;system_l2cache_cpu_side</title>
<path fill="none" stroke="black" d="M237.67,-291.84C259.1,-280.18 286.37,-263.4 307,-244 318.47,-233.22 328.87,-219.11 336.77,-206.98"/>
<polygon fill="black" stroke="black" points="339.94,-208.51 342.3,-198.18 334.02,-204.78 339.94,-208.51"/>
</g>
<!-- system_cpu_icache_port -->
<g id="node3" class="node">
<title>system_cpu_icache_port</title>
<path fill="#959ead" stroke="#000000" d="M779,-328C779,-328 717,-328 717,-328 711,-328 705,-322 705,-316 705,-316 705,-304 705,-304 705,-298 711,-292 717,-292 717,-292 779,-292 779,-292 785,-292 791,-298 791,-304 791,-304 791,-316 791,-316 791,-322 785,-328 779,-328"/>
<text text-anchor="middle" x="748" y="-306.3" font-family="Arial" font-size="14.00" fill="#000000">icache_port</text>
</g>
<!-- system_cpu_icache_cpu_side -->
<g id="node5" class="node">
<title>system_cpu_icache_cpu_side</title>
<path fill="#94918b" stroke="#000000" d="M771.5,-198C771.5,-198 724.5,-198 724.5,-198 718.5,-198 712.5,-192 712.5,-186 712.5,-186 712.5,-174 712.5,-174 712.5,-168 718.5,-162 724.5,-162 724.5,-162 771.5,-162 771.5,-162 777.5,-162 783.5,-168 783.5,-174 783.5,-174 783.5,-186 783.5,-186 783.5,-192 777.5,-198 771.5,-198"/>
<text text-anchor="middle" x="748" y="-176.3" font-family="Arial" font-size="14.00" fill="#000000">cpu_side</text>
</g>
<!-- system_cpu_icache_port&#45;&gt;system_cpu_icache_cpu_side -->
<g id="edge4" class="edge">
<title>system_cpu_icache_port&#45;&gt;system_cpu_icache_cpu_side</title>
<path fill="none" stroke="black" d="M748,-291.74C748,-270.36 748,-233.69 748,-208.44"/>
<polygon fill="black" stroke="black" points="751.5,-208.4 748,-198.4 744.5,-208.4 751.5,-208.4"/>
</g>
<!-- system_cpu_dcache_port -->
<g id="node4" class="node">
<title>system_cpu_dcache_port</title>
<path fill="#959ead" stroke="#000000" d="M587.5,-328C587.5,-328 520.5,-328 520.5,-328 514.5,-328 508.5,-322 508.5,-316 508.5,-316 508.5,-304 508.5,-304 508.5,-298 514.5,-292 520.5,-292 520.5,-292 587.5,-292 587.5,-292 593.5,-292 599.5,-298 599.5,-304 599.5,-304 599.5,-316 599.5,-316 599.5,-322 593.5,-328 587.5,-328"/>
<text text-anchor="middle" x="554" y="-306.3" font-family="Arial" font-size="14.00" fill="#000000">dcache_port</text>
</g>
<!-- system_cpu_dcache_cpu_side -->
<g id="node7" class="node">
<title>system_cpu_dcache_cpu_side</title>
<path fill="#94918b" stroke="#000000" d="M577.5,-198C577.5,-198 530.5,-198 530.5,-198 524.5,-198 518.5,-192 518.5,-186 518.5,-186 518.5,-174 518.5,-174 518.5,-168 524.5,-162 530.5,-162 530.5,-162 577.5,-162 577.5,-162 583.5,-162 589.5,-168 589.5,-174 589.5,-174 589.5,-186 589.5,-186 589.5,-192 583.5,-198 577.5,-198"/>
<text text-anchor="middle" x="554" y="-176.3" font-family="Arial" font-size="14.00" fill="#000000">cpu_side</text>
</g>
<!-- system_cpu_dcache_port&#45;&gt;system_cpu_dcache_cpu_side -->
<g id="edge5" class="edge">
<title>system_cpu_dcache_port&#45;&gt;system_cpu_dcache_cpu_side</title>
<path fill="none" stroke="black" d="M554,-291.74C554,-270.36 554,-233.69 554,-208.44"/>
<polygon fill="black" stroke="black" points="557.5,-208.4 554,-198.4 550.5,-208.4 557.5,-208.4"/>
</g>
<!-- system_trafficgen_port -->
<g id="node9" class="node">
<title>system_trafficgen_port</title>
<path fill="#94918b" stroke="#000000" d="M349,-458C349,-458 319,-458 319,-458 313,-458 307,-452 307,-446 307,-446 307,-434 307,-434 307,-428 313,-422 319,-422 319,-422 349,-422 349,-422 355,-422 361,-428 361,-434 361,-434 361,-446 361,-446 361,-452 355,-458 349,-458"/>
<text text-anchor="middle" x="334" y="-436.3" font-family="Arial" font-size="14.00" fill="#000000">port</text>
</g>
<!-- system_trafficgen_port&#45;&gt;system_membus_cpu_side_ports -->
<g id="edge6" class="edge">
<title>system_trafficgen_port&#45;&gt;system_membus_cpu_side_ports</title>
<path fill="none" stroke="black" d="M334,-421.74C334,-400.36 334,-363.69 334,-338.44"/>
<polygon fill="black" stroke="black" points="337.5,-338.4 334,-328.4 330.5,-338.4 337.5,-338.4"/>
</g>
<!-- system_l2cache_mem_side -->
<g id="node11" class="node">
<title>system_l2cache_mem_side</title>
<path fill="#94918b" stroke="#000000" d="M286,-198C286,-198 230,-198 230,-198 224,-198 218,-192 218,-186 218,-186 218,-174 218,-174 218,-168 224,-162 230,-162 230,-162 286,-162 286,-162 292,-162 298,-168 298,-174 298,-174 298,-186 298,-186 298,-192 292,-198 286,-198"/>
<text text-anchor="middle" x="258" y="-176.3" font-family="Arial" font-size="14.00" fill="#000000">mem_side</text>
</g>
<!-- system_l2bus_cpu_side_ports -->
<g id="node12" class="node">
<title>system_l2bus_cpu_side_ports</title>
<path fill="#586070" stroke="#000000" d="M300,-68C300,-68 216,-68 216,-68 210,-68 204,-62 204,-56 204,-56 204,-44 204,-44 204,-38 210,-32 216,-32 216,-32 300,-32 300,-32 306,-32 312,-38 312,-44 312,-44 312,-56 312,-56 312,-62 306,-68 300,-68"/>
<text text-anchor="middle" x="258" y="-46.3" font-family="Arial" font-size="14.00" fill="#000000">cpu_side_ports</text>
</g>
<!-- system_l2cache_mem_side&#45;&gt;system_l2bus_cpu_side_ports -->
<g id="edge7" class="edge">
<title>system_l2cache_mem_side&#45;&gt;system_l2bus_cpu_side_ports</title>
<path fill="none" stroke="black" d="M258,-161.74C258,-140.36 258,-103.69 258,-78.44"/>
<polygon fill="black" stroke="black" points="261.5,-78.4 258,-68.4 254.5,-78.4 261.5,-78.4"/>
</g>
<!-- system_l2bus_mem_side_ports -->
<g id="node13" class="node">
<title>system_l2bus_mem_side_ports</title>
<path fill="#586070" stroke="#000000" d="M174,-68C174,-68 80,-68 80,-68 74,-68 68,-62 68,-56 68,-56 68,-44 68,-44 68,-38 74,-32 80,-32 80,-32 174,-32 174,-32 180,-32 186,-38 186,-44 186,-44 186,-56 186,-56 186,-62 180,-68 174,-68"/>
<text text-anchor="middle" x="127" y="-46.3" font-family="Arial" font-size="14.00" fill="#000000">mem_side_ports</text>
</g>
<!-- system_mem_ctrl1_port -->
<g id="node14" class="node">
<title>system_mem_ctrl1_port</title>
<path fill="#94918b" stroke="#000000" d="M167,-198C167,-198 137,-198 137,-198 131,-198 125,-192 125,-186 125,-186 125,-174 125,-174 125,-168 131,-162 137,-162 137,-162 167,-162 167,-162 173,-162 179,-168 179,-174 179,-174 179,-186 179,-186 179,-192 173,-198 167,-198"/>
<text text-anchor="middle" x="152" y="-176.3" font-family="Arial" font-size="14.00" fill="#000000">port</text>
</g>
<!-- system_mem_ctrl1_port&#45;&gt;system_l2bus_mem_side_ports -->
<g id="edge8" class="edge">
<title>system_mem_ctrl1_port&#45;&gt;system_l2bus_mem_side_ports</title>
<path fill="none" stroke="black" d="M146.67,-151.72C141.75,-126.52 134.59,-89.84 130.4,-68.4"/>
<polygon fill="black" stroke="black" points="143.28,-152.59 148.63,-161.74 150.15,-151.25 143.28,-152.59"/>
</g>
<!-- system_mem_ctrl2_port -->
<g id="node15" class="node">
<title>system_mem_ctrl2_port</title>
<path fill="#94918b" stroke="#000000" d="M89,-198C89,-198 59,-198 59,-198 53,-198 47,-192 47,-186 47,-186 47,-174 47,-174 47,-168 53,-162 59,-162 59,-162 89,-162 89,-162 95,-162 101,-168 101,-174 101,-174 101,-186 101,-186 101,-192 95,-198 89,-198"/>
<text text-anchor="middle" x="74" y="-176.3" font-family="Arial" font-size="14.00" fill="#000000">port</text>
</g>
<!-- system_mem_ctrl2_port&#45;&gt;system_l2bus_mem_side_ports -->
<g id="edge9" class="edge">
<title>system_mem_ctrl2_port&#45;&gt;system_l2bus_mem_side_ports</title>
<path fill="none" stroke="black" d="M85.02,-152.39C95.46,-127.17 110.84,-90.03 119.8,-68.4"/>
<polygon fill="black" stroke="black" points="81.74,-151.16 81.15,-161.74 88.21,-153.84 81.74,-151.16"/>
</g>
</g>
</svg>
